<mxfile host="app.diagrams.net" modified="2023-06-27T20:13:49.811Z" agent="Mozilla/5.0 (Windows NT 10.0; Win64; x64) AppleWebKit/537.36 (KHTML, like Gecko) Chrome/114.0.0.0 Safari/537.36 Edg/114.0.1823.58" etag="9QFOipMbLEEMrU0Nc4Sq" version="21.5.0" type="github">
  <diagram name="Page-1" id="e3a06f82-3646-2815-327d-82caf3d4e204">
    <mxGraphModel dx="1791" dy="1006" grid="1" gridSize="10" guides="1" tooltips="1" connect="1" arrows="1" fold="1" page="1" pageScale="1.5" pageWidth="1169" pageHeight="826" background="none" math="0" shadow="0">
      <root>
        <mxCell id="0" style=";html=1;" />
        <mxCell id="1" style=";html=1;" parent="0" />
        <mxCell id="TxpGBSmb_Rb3wldLJPdr-20" value="" style="shape=link;html=1;rounded=0;fontSize=24;labelBackgroundColor=none;entryX=0.444;entryY=-0.015;entryDx=0;entryDy=0;entryPerimeter=0;exitX=0.5;exitY=1;exitDx=0;exitDy=0;" parent="1" source="TxpGBSmb_Rb3wldLJPdr-19" edge="1">
          <mxGeometry width="100" relative="1" as="geometry">
            <mxPoint x="886.4100000000001" y="420.50000000000006" as="sourcePoint" />
            <mxPoint x="887.4100000000001" y="498.5" as="targetPoint" />
          </mxGeometry>
        </mxCell>
        <mxCell id="KqSf9Hwdw_-mJAA5NMdA-5" value="" style="shape=link;html=1;rounded=0;exitX=0.5;exitY=1;exitDx=0;exitDy=0;fontSize=24;labelBackgroundColor=none;" parent="1" source="RgH2JHaKkqkQcPpsvsZi-15" edge="1">
          <mxGeometry width="100" relative="1" as="geometry">
            <mxPoint x="1290" y="460" as="sourcePoint" />
            <mxPoint x="1440" y="500" as="targetPoint" />
          </mxGeometry>
        </mxCell>
        <mxCell id="RgH2JHaKkqkQcPpsvsZi-17" value="" style="shape=link;html=1;rounded=0;exitX=1;exitY=0.5;exitDx=0;exitDy=0;fontSize=24;labelBackgroundColor=none;" parent="1" edge="1">
          <mxGeometry width="100" relative="1" as="geometry">
            <mxPoint x="659" y="500" as="sourcePoint" />
            <mxPoint x="1540" y="500" as="targetPoint" />
          </mxGeometry>
        </mxCell>
        <mxCell id="KqSf9Hwdw_-mJAA5NMdA-9" value="Corporate Network" style="edgeLabel;html=1;align=center;verticalAlign=middle;resizable=0;points=[];fontSize=24;" parent="RgH2JHaKkqkQcPpsvsZi-17" vertex="1" connectable="0">
          <mxGeometry x="-0.1241" y="1" relative="1" as="geometry">
            <mxPoint as="offset" />
          </mxGeometry>
        </mxCell>
        <mxCell id="6a7d8f32e03d9370-62" value="DNS Servers" style="text;strokeColor=none;fillColor=none;html=1;fontSize=24;fontStyle=1;verticalAlign=middle;align=center;fontColor=default;labelBackgroundColor=none;" parent="1" vertex="1">
          <mxGeometry x="669" y="30" width="861" height="40" as="geometry" />
        </mxCell>
        <mxCell id="RgH2JHaKkqkQcPpsvsZi-2" value="Internet" style="image;aspect=fixed;perimeter=ellipsePerimeter;html=1;align=center;shadow=0;dashed=0;spacingTop=3;image=img/lib/active_directory/internet_cloud.svg;fontSize=24;fontColor=default;labelBackgroundColor=none;" parent="1" vertex="1">
          <mxGeometry x="270" y="420.5" width="252.38" height="159" as="geometry" />
        </mxCell>
        <mxCell id="RgH2JHaKkqkQcPpsvsZi-4" value="" style="endArrow=none;dashed=1;html=1;dashPattern=1 3;strokeWidth=2;rounded=0;fontSize=24;fontColor=default;labelBackgroundColor=none;" parent="1" edge="1">
          <mxGeometry width="50" height="50" relative="1" as="geometry">
            <mxPoint x="619.1454545454544" y="540" as="sourcePoint" />
            <mxPoint x="620" y="775" as="targetPoint" />
          </mxGeometry>
        </mxCell>
        <mxCell id="RgH2JHaKkqkQcPpsvsZi-15" value="Host Machine" style="image;html=1;image=img/lib/clip_art/computers/Laptop_128x128.png;fontSize=24;labelBackgroundColor=default;" parent="1" vertex="1">
          <mxGeometry x="1400" y="270" width="80" height="100" as="geometry" />
        </mxCell>
        <mxCell id="KqSf9Hwdw_-mJAA5NMdA-3" value="" style="shape=link;html=1;rounded=0;exitX=1;exitY=0.5;exitDx=0;exitDy=0;entryX=0;entryY=0.5;entryDx=0;entryDy=0;fontSize=24;labelBackgroundColor=none;" parent="1" source="RgH2JHaKkqkQcPpsvsZi-2" edge="1">
          <mxGeometry width="100" relative="1" as="geometry">
            <mxPoint x="522" y="500" as="sourcePoint" />
            <mxPoint x="579" y="500" as="targetPoint" />
          </mxGeometry>
        </mxCell>
        <mxCell id="KqSf9Hwdw_-mJAA5NMdA-4" value="" style="endArrow=none;dashed=1;html=1;dashPattern=1 3;strokeWidth=2;rounded=0;fontSize=24;fontColor=default;labelBackgroundColor=none;" parent="1" edge="1">
          <mxGeometry width="50" height="50" relative="1" as="geometry">
            <mxPoint x="620" y="225" as="sourcePoint" />
            <mxPoint x="619.1454545454544" y="460" as="targetPoint" />
          </mxGeometry>
        </mxCell>
        <mxCell id="TxpGBSmb_Rb3wldLJPdr-1" value="" style="image;html=1;image=img/lib/clip_art/networking/Firewall-page1_128x128.png" parent="1" vertex="1">
          <mxGeometry x="579" y="460" width="80" height="80" as="geometry" />
        </mxCell>
        <mxCell id="TxpGBSmb_Rb3wldLJPdr-6" value="Caching &lt;br&gt;DNS Server&lt;br&gt;(Stores DNS request results&lt;br&gt;to make lookup faster)" style="image;html=1;image=img/lib/clip_art/computers/Server_128x128.png;fontSize=24;" parent="1" vertex="1">
          <mxGeometry x="1290" y="570" width="110" height="80" as="geometry" />
        </mxCell>
        <mxCell id="TxpGBSmb_Rb3wldLJPdr-7" value="" style="shape=link;html=1;rounded=0;fontSize=24;labelBackgroundColor=none;entryX=0.444;entryY=-0.015;entryDx=0;entryDy=0;entryPerimeter=0;" parent="1" edge="1">
          <mxGeometry width="100" relative="1" as="geometry">
            <mxPoint x="1344.5" y="501.20000000000005" as="sourcePoint" />
            <mxPoint x="1345.5" y="579.2" as="targetPoint" />
          </mxGeometry>
        </mxCell>
        <mxCell id="TxpGBSmb_Rb3wldLJPdr-19" value="Forwarding&lt;br&gt;DNS Server&lt;br&gt;(Just sends requests &lt;br&gt;to another DNS server)" style="image;html=1;image=img/lib/clip_art/computers/Server_128x128.png;fontSize=24;labelBackgroundColor=default;" parent="1" vertex="1">
          <mxGeometry x="832" y="230" width="110" height="80" as="geometry" />
        </mxCell>
        <mxCell id="E2bT5KaukK148jxZRu-1-1" value="" style="ellipse;whiteSpace=wrap;html=1;aspect=fixed;strokeColor=#FF3333;fillColor=none;strokeWidth=7;" parent="1" vertex="1">
          <mxGeometry x="1270" y="30" width="150" height="150" as="geometry" />
        </mxCell>
        <mxCell id="E2bT5KaukK148jxZRu-1-2" value="" style="shape=flexArrow;endArrow=classic;html=1;rounded=0;strokeColor=#FF3333;fillColor=none;strokeWidth=7;" parent="1" edge="1">
          <mxGeometry width="50" height="50" relative="1" as="geometry">
            <mxPoint x="910" y="115" as="sourcePoint" />
            <mxPoint x="1000" y="115" as="targetPoint" />
          </mxGeometry>
        </mxCell>
        <mxCell id="E2bT5KaukK148jxZRu-1-4" value="&lt;font style=&quot;font-size: 24px;&quot;&gt;google.com&lt;/font&gt;" style="swimlane;whiteSpace=wrap;html=1;" parent="1" vertex="1">
          <mxGeometry x="380" y="20" width="210" height="260" as="geometry" />
        </mxCell>
        <mxCell id="E2bT5KaukK148jxZRu-1-5" value="Authoritative&lt;br&gt;DNS Server&lt;br&gt;Holds records for &lt;br&gt;Google.com" style="image;html=1;image=img/lib/clip_art/computers/Server_128x128.png;fontSize=24;" parent="E2bT5KaukK148jxZRu-1-4" vertex="1">
          <mxGeometry x="50" y="45" width="110" height="80" as="geometry" />
        </mxCell>
        <mxCell id="E2bT5KaukK148jxZRu-1-7" value="" style="shape=link;html=1;rounded=0;fontSize=24;labelBackgroundColor=none;exitX=0.5;exitY=1;exitDx=0;exitDy=0;entryX=0.75;entryY=0;entryDx=0;entryDy=0;" parent="1" source="E2bT5KaukK148jxZRu-1-4" target="RgH2JHaKkqkQcPpsvsZi-2" edge="1">
          <mxGeometry width="100" relative="1" as="geometry">
            <mxPoint x="360" y="277.19" as="sourcePoint" />
            <mxPoint x="554" y="470.19" as="targetPoint" />
          </mxGeometry>
        </mxCell>
        <mxCell id="FYgPK7Z1jiXgrqDPi6gt-2" value="&lt;font style=&quot;font-size: 24px;&quot;&gt;DNS Query for:&lt;br style=&quot;border-color: var(--border-color);&quot;&gt;www.google.com&lt;/font&gt;" style="whiteSpace=wrap;html=1;shape=mxgraph.basic.oval_callout" parent="1" vertex="1">
          <mxGeometry x="1470" y="170" width="260" height="150" as="geometry" />
        </mxCell>
        <mxCell id="tentwsTDsZKtuL-YGYM0-1" value="Email Server" style="verticalLabelPosition=bottom;html=1;verticalAlign=top;strokeWidth=1;align=center;outlineConnect=0;dashed=0;outlineConnect=0;shape=mxgraph.aws3d.email_service;fillColor=#ECECEC;strokeColor=#5E5E5E;aspect=fixed;fontSize=24;" vertex="1" parent="1">
          <mxGeometry x="120" y="230" width="86.51" height="110" as="geometry" />
        </mxCell>
      </root>
    </mxGraphModel>
  </diagram>
</mxfile>
